<?xml version="1.0" encoding="UTF-8"?>
<!DOCTYPE svg PUBLIC "-//W3C//DTD SVG 1.1//EN" "http://www.w3.org/Graphics/SVG/1.1/DTD/svg11.dtd">
<!-- Creator: CorelDRAW 2021 (64-Bit) -->
<svg xmlns="http://www.w3.org/2000/svg" xml:space="preserve" width="42.7797mm" height="48.159mm" version="1.1" style="shape-rendering:geometricPrecision; text-rendering:geometricPrecision; image-rendering:optimizeQuality; fill-rule:evenodd; clip-rule:evenodd"
viewBox="0 0 657.53 740.21"
 xmlns:xlink="http://www.w3.org/1999/xlink"
 xmlns:xodm="http://www.corel.com/coreldraw/odm/2003">
 <defs>
  <style type="text/css">
   <![CDATA[
    .fil0 {fill:#4CABB4}
    .fil1 {fill:#FCD45D}
    .fil2 {fill:#FCFAFF}
   ]]>
  </style>
 </defs>
 <g id="Capa_x0020_1">
  <metadata id="CorelCorpID_0Corel-Layer"/>
  <g id="_2535685374032">
   <path class="fil0" d="M177.28 557.16c2.96,-13.01 81.93,-111.45 101.52,-119.91 -15.31,-14.76 -72.38,-23.88 -99.48,-30.16l-36.5 -13.53c13.42,-23.66 185.75,-226.59 202.35,-238.39 11.51,36.57 21.15,136.67 47.18,155.85 -5.05,-13.36 0.41,-14.1 13.65,-29.62 9.58,-11.24 15.35,-18.16 24.94,-29.51 17.54,-20.77 39.23,-42.24 51.72,-63.84 -1.28,-19.96 -21.76,-142.98 -41.17,-157.9 -20.67,-12.96 -69.73,-19.52 -98.07,-26.6 -48.93,-12.23 -50,8.7 -76.93,40.45 -37.27,43.93 -78.99,92.72 -119.43,140.82 -39.15,46.57 -77.8,93.98 -119.34,140.93 -41.75,47.18 -29.66,42.3 -7.3,143.51 4.94,22.36 6.16,38.28 17.13,47.99 31.27,22.48 111.85,16.87 139.72,39.93z"/>
   <path class="fil1" d="M392.35 311.02c34.82,6.79 103.64,16.87 126.32,33.74l-153.05 183.34c-15.65,18.85 -34.92,47.33 -51.72,55.32l-35.1 -146.17c-19.59,8.46 -98.55,106.9 -101.52,119.91 2.95,21.57 27.14,136.03 36.37,147.32 10.7,13.09 116.8,35.59 142.17,35.73 24.03,-36.09 66.43,-80.21 98.63,-118.25l197.02 -231.18c19.63,-26.12 -13.73,-136.89 -25.2,-169.92 -28.66,-9.3 -114.41,-32.62 -143.61,-32.81 -12.49,21.6 -34.18,43.07 -51.72,63.84 -9.58,11.35 -15.35,18.27 -24.94,29.51 -13.24,15.53 -18.7,16.26 -13.65,29.62z"/>
   <path class="fil2" d="M269.6 303.86c-0.68,17.41 6.86,10.36 41.63,11.72 7.61,30.22 -6.75,145.76 7.13,149.34 13.74,3.55 9.89,-18.29 9.8,-28.04l0.07 -120.65c7.67,-0.91 35.01,0.12 38.94,-2.02 6.24,-3.39 13.24,-14.55 -18.62,-14.05 -16.28,0.26 -68.39,-3.55 -78.95,3.69z"/>
  </g>
 </g>
</svg>
